# Apple ModelIO OBJ File: test
mtllib test.mtl
g 
v -12.4401 21.118 476.39
v 7.48664 21.118 463.013
v 7.48664 -2.88205 463.013
v -12.4401 -2.88205 476.39
v 20.8629 21.118 482.94
v 20.8629 -2.88205 482.94
v 0.936237 21.118 496.316
v 0.936237 -2.88205 496.316
vn -1 0 0
vn 0 0 -1
vn 1 0 0
vn 0 0 1
vn 0 1 0
vn 0 -1 0
vt 0 0
vt 0.25 0
vt 0.25 0.666666
vt 0 0.666666
vt 0.5 0
vt 0.5 0.666666
vt 0.75 0
vt 0.75 0.666666
vt 1 0
vt 1 0.666666
vt 0.25 1
vt 0 1
vt 0 0.666667
vt 0.25 0.666667
vt 1 0.666667
vt 0.75 1
vt 0.75 0.666667
vt 1 1
usemtl material_1
f 1/1/1 2/2/1 3/3/1 4/4/1 
f 2/2/2 5/5/2 6/6/2 3/3/2 
f 5/5/3 7/7/3 8/8/3 6/6/3 
f 7/7/4 1/9/4 4/10/4 8/8/4 
f 1/11/5 7/12/5 5/13/5 
f 5/13/5 2/14/5 1/11/5 
f 4/15/6 6/16/6 8/17/6 
f 6/16/6 4/15/6 3/18/6 
s off
